<svg width="198" height="26" viewBox="0 0 198 26" fill="none" xmlns="http://www.w3.org/2000/svg">
<path d="M4.312 20.288C3.432 20.272 2.648 20.192 1.96 20.048C1.288 19.92 0.744 19.744 0.328 19.52L0.976 17.768C1.296 17.96 1.728 18.136 2.272 18.296C2.832 18.44 3.512 18.528 4.312 18.56V12.08C3.832 11.84 3.352 11.584 2.872 11.312C2.408 11.04 1.992 10.72 1.624 10.352C1.256 9.968 0.96 9.52 0.736 9.008C0.512 8.496 0.4 7.888 0.4 7.184C0.4 6.032 0.72 5.088 1.36 4.352C2.016 3.616 3 3.16 4.312 2.984V0.8H5.944V2.912C6.76 2.944 7.424 3.024 7.936 3.152C8.464 3.264 8.936 3.416 9.352 3.608L8.776 5.288C8.456 5.128 8.072 4.992 7.624 4.88C7.176 4.752 6.616 4.672 5.944 4.64V10.568C6.44 10.824 6.936 11.104 7.432 11.408C7.928 11.696 8.368 12.032 8.752 12.416C9.152 12.8 9.472 13.248 9.712 13.76C9.952 14.272 10.072 14.872 10.072 15.56C10.072 16.808 9.72 17.84 9.016 18.656C8.328 19.456 7.304 19.968 5.944 20.192V22.4H4.312V20.288ZM8.08 15.728C8.08 15.344 8.008 15 7.864 14.696C7.736 14.392 7.56 14.12 7.336 13.88C7.112 13.64 6.848 13.424 6.544 13.232C6.24 13.04 5.912 12.856 5.56 12.68V18.512C6.296 18.384 6.896 18.096 7.36 17.648C7.84 17.2 8.08 16.56 8.08 15.728ZM2.392 7.064C2.392 7.752 2.608 8.312 3.04 8.744C3.488 9.176 4.04 9.568 4.696 9.92V4.664C3.848 4.76 3.248 5.04 2.896 5.504C2.56 5.968 2.392 6.488 2.392 7.064ZM17.6706 19.232C17.6706 18.544 17.5506 17.952 17.3106 17.456C17.0866 16.944 16.7986 16.52 16.4466 16.184C16.1106 15.848 15.7426 15.6 15.3426 15.44C14.9586 15.28 14.6146 15.2 14.3106 15.2V13.52C14.6146 13.52 14.9586 13.456 15.3426 13.328C15.7426 13.184 16.1106 12.96 16.4466 12.656C16.7986 12.336 17.0866 11.928 17.3106 11.432C17.5506 10.936 17.6706 10.32 17.6706 9.584V7.136C17.6706 6.56 17.7586 6.032 17.9346 5.552C18.1266 5.072 18.3826 4.656 18.7026 4.304C19.0386 3.952 19.4306 3.68 19.8786 3.488C20.3426 3.28 20.8466 3.176 21.3906 3.176H24.8706V4.856H22.2306C21.2226 4.856 20.5186 5.096 20.1186 5.576C19.7346 6.056 19.5426 6.768 19.5426 7.712V10.04C19.5426 10.696 19.4226 11.28 19.1826 11.792C18.9426 12.304 18.6546 12.736 18.3186 13.088C17.9826 13.424 17.6386 13.696 17.2866 13.904C16.9346 14.096 16.6466 14.208 16.4226 14.24V14.384C16.6306 14.416 16.9106 14.544 17.2626 14.768C17.6146 14.976 17.9586 15.272 18.2946 15.656C18.6306 16.024 18.9186 16.464 19.1586 16.976C19.4146 17.488 19.5426 18.056 19.5426 18.68V20.984C19.5426 21.96 19.7506 22.68 20.1666 23.144C20.5826 23.608 21.2786 23.84 22.2546 23.84H24.8706V25.52H21.3906C20.2706 25.52 19.3666 25.184 18.6786 24.512C18.0066 23.856 17.6706 22.88 17.6706 21.584V19.232Z" fill="white"/>
<path d="M39.4773 18.488C39.1893 18.744 38.8453 18.984 38.4453 19.208C38.0613 19.432 37.6373 19.624 37.1733 19.784C36.7093 19.944 36.2213 20.064 35.7093 20.144C35.2133 20.24 34.7093 20.288 34.1973 20.288C33.2373 20.288 32.3893 20.144 31.6533 19.856C30.9173 19.552 30.3013 19.128 29.8053 18.584C29.3093 18.024 28.9333 17.36 28.6773 16.592C28.4213 15.824 28.2933 14.96 28.2933 14C28.2933 12.992 28.4293 12.096 28.7013 11.312C28.9893 10.528 29.3973 9.872 29.9253 9.344C30.4533 8.816 31.0933 8.416 31.8453 8.144C32.5973 7.856 33.4373 7.712 34.3653 7.712C35.0373 7.712 35.7013 7.8 36.3573 7.976C37.0133 8.152 37.5893 8.488 38.0853 8.984C38.5973 9.464 38.9893 10.136 39.2613 11C39.5333 11.848 39.6293 12.952 39.5493 14.312H30.2613C30.2613 15.752 30.6453 16.832 31.4133 17.552C32.1973 18.256 33.2373 18.608 34.5333 18.608C34.9653 18.608 35.3893 18.56 35.8053 18.464C36.2373 18.352 36.6453 18.224 37.0293 18.08C37.4133 17.936 37.7493 17.776 38.0373 17.6C38.3413 17.424 38.5733 17.264 38.7333 17.12L39.4773 18.488ZM34.4133 9.296C33.8853 9.296 33.3813 9.352 32.9013 9.464C32.4373 9.576 32.0213 9.768 31.6533 10.04C31.3013 10.296 31.0053 10.64 30.7653 11.072C30.5413 11.488 30.3973 12.008 30.3333 12.632H37.7973C37.7173 11.576 37.3733 10.76 36.7653 10.184C36.1733 9.592 35.3893 9.296 34.4133 9.296ZM43.4039 12.2C43.4039 12.056 43.3959 11.872 43.3799 11.648C43.3799 11.408 43.3719 11.168 43.3559 10.928C43.3399 10.672 43.3159 10.424 43.2839 10.184C43.2679 9.944 43.2439 9.736 43.2119 9.56H41.6039V8H44.8199L45.0359 9.944H45.1559C45.3159 9.672 45.5239 9.408 45.7799 9.152C46.0519 8.88 46.3639 8.64 46.7159 8.432C47.0679 8.208 47.4599 8.032 47.8919 7.904C48.3239 7.776 48.7799 7.712 49.2599 7.712C49.9959 7.712 50.6439 7.792 51.2039 7.952C51.7799 8.112 52.2519 8.4 52.6199 8.816C53.0039 9.216 53.2919 9.768 53.4839 10.472C53.6759 11.16 53.7719 12.04 53.7719 13.112V20H51.8999V13.472C51.8999 12.144 51.6839 11.144 51.2519 10.472C50.8199 9.8 50.0359 9.464 48.8999 9.464C48.4839 9.464 48.0759 9.552 47.6759 9.728C47.2919 9.888 46.9399 10.104 46.6199 10.376C46.2999 10.648 46.0199 10.968 45.7799 11.336C45.5399 11.688 45.3639 12.064 45.2519 12.464V20H43.4039V12.2ZM68.1385 20.6C68.1385 21.352 67.9945 22.008 67.7065 22.568C67.4185 23.144 67.0185 23.616 66.5065 23.984C66.0105 24.352 65.4265 24.624 64.7545 24.8C64.0825 24.992 63.3545 25.088 62.5705 25.088C61.6265 25.088 60.8025 24.992 60.0985 24.8C59.3945 24.608 58.7865 24.36 58.2745 24.056L59.1865 22.352C59.3305 22.48 59.5145 22.6 59.7385 22.712C59.9785 22.84 60.2505 22.952 60.5545 23.048C60.8585 23.16 61.1785 23.248 61.5145 23.312C61.8665 23.376 62.2105 23.408 62.5465 23.408C63.2505 23.408 63.8345 23.344 64.2985 23.216C64.7785 23.088 65.1625 22.888 65.4505 22.616C65.7385 22.344 65.9465 21.992 66.0745 21.56C66.2025 21.128 66.2665 20.6 66.2665 19.976V18.632H66.1705C65.8025 19.16 65.3305 19.568 64.7545 19.856C64.1785 20.144 63.4345 20.288 62.5225 20.288C60.6985 20.288 59.3545 19.784 58.4905 18.776C57.6425 17.752 57.2185 16.168 57.2185 14.024C57.2185 11.976 57.7625 10.432 58.8505 9.392C59.9385 8.336 61.5545 7.808 63.6985 7.808C64.6905 7.808 65.5305 7.88 66.2185 8.024C66.9225 8.152 67.5625 8.32 68.1385 8.528V20.6ZM62.7865 18.68C63.7625 18.68 64.5305 18.432 65.0905 17.936C65.6505 17.424 66.0425 16.648 66.2665 15.608V9.92C65.5625 9.584 64.5785 9.416 63.3145 9.416C62.0345 9.416 61.0265 9.792 60.2905 10.544C59.5545 11.296 59.1865 12.448 59.1865 14C59.1865 14.688 59.2505 15.32 59.3785 15.896C59.5065 16.456 59.7065 16.944 59.9785 17.36C60.2665 17.776 60.6345 18.104 61.0825 18.344C61.5465 18.568 62.1145 18.68 62.7865 18.68Z" fill="#00BFFF"/>
<path d="M71.8731 3.2C72.4811 3.12 73.1131 3.072 73.7691 3.056C74.4411 3.024 75.0091 3.008 75.4731 3.008C76.9291 3.008 78.1451 3.216 79.1211 3.632C80.1131 4.048 80.9051 4.632 81.4971 5.384C82.1051 6.12 82.5371 7.008 82.7931 8.048C83.0651 9.088 83.2011 10.232 83.2011 11.48C83.2011 12.616 83.0811 13.712 82.8411 14.768C82.6011 15.808 82.1851 16.736 81.5931 17.552C81.0011 18.352 80.2011 19 79.1931 19.496C78.2011 19.976 76.9531 20.216 75.4491 20.216C75.2411 20.216 74.9691 20.208 74.6331 20.192C74.2971 20.192 73.9531 20.176 73.6011 20.144C73.2491 20.128 72.9131 20.112 72.5931 20.096C72.2731 20.08 72.0331 20.056 71.8731 20.024V3.2ZM75.5691 4.784C75.3451 4.784 75.0571 4.792 74.7051 4.808C74.3691 4.824 74.0891 4.856 73.8651 4.904V18.344C73.9451 18.36 74.0571 18.376 74.2011 18.392C74.3611 18.392 74.5211 18.4 74.6811 18.416C74.8411 18.416 74.9931 18.424 75.1371 18.44C75.2971 18.44 75.4251 18.44 75.5211 18.44C76.6891 18.44 77.6331 18.248 78.3531 17.864C79.0891 17.48 79.6571 16.968 80.0571 16.328C80.4571 15.672 80.7291 14.928 80.8731 14.096C81.0171 13.248 81.0891 12.376 81.0891 11.48C81.0891 10.696 81.0251 9.912 80.8971 9.128C80.7691 8.328 80.5051 7.608 80.1051 6.968C79.7211 6.328 79.1611 5.808 78.4251 5.408C77.7051 4.992 76.7531 4.784 75.5691 4.784ZM86.8638 20V18.392H91.0398V9.608H86.8638V8H92.9598V18.392H97.0398V20H86.8638ZM90.3918 4.592C90.3918 4.16 90.5358 3.792 90.8238 3.488C91.1118 3.168 91.4798 3.008 91.9278 3.008C92.3918 3.008 92.7758 3.168 93.0798 3.488C93.3998 3.792 93.5598 4.16 93.5598 4.592C93.5598 5.008 93.3998 5.36 93.0798 5.648C92.7758 5.936 92.3918 6.08 91.9278 6.08C91.4798 6.08 91.1118 5.936 90.8238 5.648C90.5358 5.36 90.3918 5.008 90.3918 4.592ZM100.966 12.2C100.966 12.056 100.958 11.872 100.942 11.648C100.942 11.408 100.934 11.168 100.918 10.928C100.902 10.672 100.878 10.424 100.846 10.184C100.83 9.944 100.806 9.736 100.774 9.56H99.1664V8H102.382L102.598 9.944H102.718C102.878 9.672 103.086 9.408 103.342 9.152C103.614 8.88 103.926 8.64 104.278 8.432C104.63 8.208 105.022 8.032 105.454 7.904C105.886 7.776 106.342 7.712 106.822 7.712C107.558 7.712 108.206 7.792 108.766 7.952C109.342 8.112 109.814 8.4 110.182 8.816C110.566 9.216 110.854 9.768 111.046 10.472C111.238 11.16 111.334 12.04 111.334 13.112V20H109.462V13.472C109.462 12.144 109.246 11.144 108.814 10.472C108.382 9.8 107.598 9.464 106.462 9.464C106.046 9.464 105.638 9.552 105.238 9.728C104.854 9.888 104.502 10.104 104.182 10.376C103.862 10.648 103.582 10.968 103.342 11.336C103.102 11.688 102.926 12.064 102.814 12.464V20H100.966V12.2ZM113.221 3.2H116.965V9.488H117.085C117.581 8.928 118.157 8.496 118.813 8.192C119.469 7.872 120.285 7.712 121.261 7.712C122.029 7.712 122.693 7.792 123.253 7.952C123.829 8.112 124.293 8.392 124.645 8.792C125.013 9.192 125.285 9.744 125.461 10.448C125.637 11.136 125.725 12.016 125.725 13.088V20H123.853V13.448C123.853 12.76 123.813 12.16 123.733 11.648C123.653 11.136 123.493 10.712 123.253 10.376C123.029 10.024 122.717 9.76 122.317 9.584C121.917 9.408 121.405 9.32 120.781 9.32C120.349 9.32 119.925 9.4 119.509 9.56C119.093 9.704 118.709 9.912 118.357 10.184C118.021 10.44 117.725 10.76 117.469 11.144C117.229 11.512 117.061 11.92 116.965 12.368V20H115.117V4.808H113.221V3.2ZM140.212 18.488C139.924 18.744 139.58 18.984 139.18 19.208C138.796 19.432 138.372 19.624 137.908 19.784C137.444 19.944 136.956 20.064 136.444 20.144C135.948 20.24 135.444 20.288 134.932 20.288C133.972 20.288 133.124 20.144 132.388 19.856C131.652 19.552 131.036 19.128 130.54 18.584C130.044 18.024 129.668 17.36 129.412 16.592C129.156 15.824 129.028 14.96 129.028 14C129.028 12.992 129.164 12.096 129.436 11.312C129.724 10.528 130.132 9.872 130.66 9.344C131.188 8.816 131.828 8.416 132.58 8.144C133.332 7.856 134.172 7.712 135.1 7.712C135.772 7.712 136.436 7.8 137.092 7.976C137.748 8.152 138.324 8.488 138.82 8.984C139.332 9.464 139.724 10.136 139.996 11C140.268 11.848 140.364 12.952 140.284 14.312H130.996C130.996 15.752 131.38 16.832 132.148 17.552C132.932 18.256 133.972 18.608 135.268 18.608C135.7 18.608 136.124 18.56 136.54 18.464C136.972 18.352 137.38 18.224 137.764 18.08C138.148 17.936 138.484 17.776 138.772 17.6C139.076 17.424 139.308 17.264 139.468 17.12L140.212 18.488ZM135.148 9.296C134.62 9.296 134.116 9.352 133.636 9.464C133.172 9.576 132.756 9.768 132.388 10.04C132.036 10.296 131.74 10.64 131.5 11.072C131.276 11.488 131.132 12.008 131.068 12.632H138.532C138.452 11.576 138.108 10.76 137.5 10.184C136.908 9.592 136.124 9.296 135.148 9.296ZM144.426 20V18.392H148.602V9.608H144.426V8H150.522V18.392H154.602V20H144.426ZM147.954 4.592C147.954 4.16 148.098 3.792 148.386 3.488C148.674 3.168 149.042 3.008 149.49 3.008C149.954 3.008 150.338 3.168 150.642 3.488C150.962 3.792 151.122 4.16 151.122 4.592C151.122 5.008 150.962 5.36 150.642 5.648C150.338 5.936 149.954 6.08 149.49 6.08C149.042 6.08 148.674 5.936 148.386 5.648C148.098 5.36 147.954 5.008 147.954 4.592ZM157.881 20V18.392H161.121V9.608H157.881V8H162.369L162.753 9.56H162.873C163.417 9.064 164.025 8.64 164.697 8.288C165.369 7.936 166.169 7.76 167.097 7.76C167.641 7.76 168.073 7.864 168.393 8.072C168.729 8.28 168.985 8.584 169.161 8.984C169.353 9.384 169.481 9.872 169.545 10.448C169.609 11.008 169.641 11.648 169.641 12.368L167.961 12.392C167.961 11.368 167.857 10.616 167.649 10.136C167.457 9.656 167.097 9.416 166.569 9.416C166.073 9.416 165.625 9.488 165.225 9.632C164.825 9.776 164.473 9.952 164.169 10.16C163.881 10.368 163.633 10.576 163.425 10.784C163.217 10.992 163.065 11.168 162.969 11.312V18.392H167.577V20H157.881ZM172.056 14C172.056 12.064 172.56 10.536 173.568 9.416C174.576 8.28 176.016 7.712 177.888 7.712C178.896 7.712 179.76 7.88 180.48 8.216C181.216 8.536 181.824 8.976 182.304 9.536C182.784 10.096 183.135 10.76 183.359 11.528C183.6 12.296 183.72 13.12 183.72 14C183.72 14.96 183.592 15.832 183.336 16.616C183.08 17.384 182.704 18.04 182.208 18.584C181.712 19.128 181.096 19.552 180.36 19.856C179.64 20.144 178.816 20.288 177.888 20.288C176.896 20.288 176.032 20.128 175.296 19.808C174.56 19.472 173.952 19.024 173.472 18.464C172.992 17.904 172.632 17.24 172.392 16.472C172.168 15.704 172.056 14.88 172.056 14ZM174.048 14C174.048 14.56 174.112 15.12 174.24 15.68C174.384 16.24 174.608 16.744 174.912 17.192C175.216 17.64 175.608 18 176.088 18.272C176.584 18.544 177.184 18.68 177.888 18.68C179.168 18.68 180.128 18.288 180.768 17.504C181.424 16.704 181.752 15.536 181.752 14C181.752 13.424 181.68 12.864 181.536 12.32C181.408 11.76 181.184 11.256 180.864 10.808C180.56 10.36 180.16 10 179.664 9.728C179.184 9.456 178.592 9.32 177.888 9.32C176.608 9.32 175.648 9.712 175.008 10.496C174.368 11.28 174.048 12.448 174.048 14Z" fill="#00FF00"/>
<path d="M194.198 21.584C194.198 22.88 193.854 23.856 193.166 24.512C192.494 25.184 191.598 25.52 190.478 25.52H186.998V23.84H189.614C190.59 23.84 191.286 23.608 191.702 23.144C192.118 22.68 192.326 21.96 192.326 20.984V18.68C192.326 18.056 192.446 17.488 192.686 16.976C192.926 16.464 193.214 16.024 193.55 15.656C193.886 15.272 194.23 14.976 194.582 14.768C194.934 14.544 195.222 14.416 195.446 14.384V14.24C195.222 14.208 194.934 14.096 194.582 13.904C194.23 13.696 193.886 13.424 193.55 13.088C193.214 12.736 192.926 12.304 192.686 11.792C192.446 11.28 192.326 10.696 192.326 10.04V7.712C192.326 6.768 192.126 6.056 191.726 5.576C191.342 5.096 190.646 4.856 189.638 4.856H186.998V3.176H190.478C191.022 3.176 191.518 3.28 191.966 3.488C192.43 3.68 192.822 3.952 193.142 4.304C193.478 4.656 193.734 5.072 193.91 5.552C194.102 6.032 194.198 6.56 194.198 7.136V9.584C194.198 10.32 194.31 10.936 194.534 11.432C194.774 11.928 195.062 12.336 195.398 12.656C195.75 12.96 196.118 13.184 196.502 13.328C196.902 13.456 197.254 13.52 197.558 13.52V15.2C197.254 15.2 196.902 15.28 196.502 15.44C196.118 15.6 195.75 15.848 195.398 16.184C195.062 16.52 194.774 16.944 194.534 17.456C194.31 17.952 194.198 18.544 194.198 19.232V21.584Z" fill="#FCFCFC"/>
</svg>
